<svg width="504" height="336" viewBox="0 0 504 336" fill="none" xmlns="http://www.w3.org/2000/svg">
<circle cx="60" cy="47" r="35" fill="#34879B"/>
<path d="M430.414 41.5783C455.614 49.1783 483.214 60.7783 494.014 80.7783C505.214 101.178 500.014 130.378 500.414 159.978C500.814 189.178 506.814 219.178 499.214 245.178C491.614 271.578 470.414 293.978 444.414 311.178C418.814 328.778 388.814 340.778 363.214 332.378C337.614 324.378 317.214 295.578 302.414 271.578C288.014 247.978 279.614 229.178 257.214 211.178C234.814 193.178 198.414 176.378 198.014 159.178C197.214 141.978 232.014 124.378 250.014 99.1783C268.414 73.5783 269.614 40.7784 284.814 27.1784C300.014 13.5784 329.214 19.9783 355.614 24.7783C381.614 29.9783 405.214 33.9783 430.414 41.5783Z" fill="#34879B"/>
<circle cx="12.5" cy="12.5" r="12.5" fill="#34879B"/>
</svg>
