<svg width="952" height="921" viewBox="0 0 952 921" fill="none" xmlns="http://www.w3.org/2000/svg">
<path d="M301.846 440.305C275.968 441.904 248.554 420.184 211.986 403.49C175.401 386.156 129.662 373.848 114.273 346.711C99.1962 319.247 113.83 276.97 134.377 240.946C154.925 204.922 181.074 175.479 214.791 154.488C248.821 133.169 290.434 120.942 330.259 126.997C370.412 133.364 408.777 158.013 421.766 191.609C434.443 225.532 421.728 267.761 410.102 302.285C398.149 336.496 387.613 363.314 369.683 388.714C352.08 414.426 327.723 438.705 301.846 440.305Z" fill="#F7950F"/>
<path d="M290.885 229.874C370.606 202.511 434.402 187.556 510.683 165.467C586.965 143.377 675.496 115.114 743.75 138.964C810.754 163.526 857.716 239.24 877.467 316.443C896.205 393.399 887.968 470.884 862.909 538.133C837.85 605.383 796.746 663.607 741.339 696.924C687.18 729.528 618.483 738.186 536.194 762.881C454.918 787.825 359.273 827.596 294.53 802.568C230.8 777.788 196.959 687.96 156.334 599.529C115.708 511.098 68.0622 425.024 91.1664 361.373C115.284 297.97 211.164 257.237 290.885 229.874Z" fill="#FFD02A"/>
</svg>
