<svg width="75" height="75" viewBox="0 0 75 75" fill="none" xmlns="http://www.w3.org/2000/svg">
<g clip-path="url(#clip0_521_829)">
<path d="M72.4717 37.1575C72.4356 44.69 70.0879 52.0602 65.5008 58.0609C61.0583 63.8995 54.7195 68.1522 47.7667 70.4228C43.5408 71.8103 39.1343 72.4591 34.6918 72.4771C33.0664 72.4771 33.0664 74.9999 34.6918 74.9999C42.9448 74.9999 51.1257 72.8375 57.9882 68.3685C64.5979 64.1157 69.7267 57.9528 72.5801 50.6727C74.2596 46.3839 75.0542 41.7707 75.0722 37.1575C75.0722 35.5357 72.5439 35.5357 72.5439 37.1575" fill="#313131"/>
<path d="M5.05658 37.7164C5.05658 19.6061 19.7929 4.91968 37.9244 4.91968C56.0559 4.91968 70.7922 19.6061 70.7922 37.7164C70.7922 55.8267 56.092 70.5132 37.9244 70.5132C19.7568 70.5132 5.05658 55.8267 5.05658 37.7164Z" fill="#313131"/>
<path d="M2.52829 39.6985C2.52829 31.9498 4.98435 24.4534 9.49915 18.1643C13.8695 12.0735 20.1541 7.35223 27.2333 4.79337C31.4231 3.29769 35.8295 2.52283 40.2721 2.52283C41.8974 2.52283 41.9335 0 40.2721 0C32.019 0 23.8382 2.52283 17.0479 7.26213C10.4382 11.8933 5.30941 18.4346 2.49217 25.9491C0.830725 30.328 0 35.0132 0 39.6985C0 41.3203 2.52829 41.3203 2.52829 39.6985Z" fill="#313131"/>
<path d="M8.30363 47.285C8.30363 47.4832 8.2928 47.6094 8.27474 47.6634C8.25668 47.7175 8.21334 47.7409 8.14832 47.7409C8.09053 47.7409 8.05261 47.7175 8.03455 47.6688C8.01649 47.622 7.99843 47.5103 7.99843 47.3373V44.3639H6.96906V46.7066C6.96906 47.1571 6.96905 47.4454 6.98711 47.5896C7.00517 47.7337 7.05935 47.8599 7.14965 47.986C7.23994 48.1121 7.36636 48.2022 7.54695 48.2923C7.72754 48.3824 7.92619 48.4005 8.16096 48.4005C8.37767 48.4005 8.55827 48.3644 8.7208 48.2923C8.88333 48.2203 9.00975 48.1302 9.10004 48.004C9.19034 47.8599 9.24452 47.7337 9.28064 47.6256C9.2987 47.4995 9.2987 47.2832 9.2987 46.9949V44.3459H8.26932V47.2652L8.30363 47.285ZM11.7349 45.1442C11.6265 45.0631 11.4875 45.0235 11.3195 45.0235C11.1823 45.0235 11.0631 45.0541 10.9583 45.1136C10.8536 45.173 10.7669 45.2613 10.6947 45.3839L10.7127 45.0829H9.70503V48.3266H10.6947V46.1317C10.6947 45.8921 10.7037 45.7407 10.7218 45.6812C10.7398 45.6272 10.785 45.6001 10.8554 45.6001C10.9276 45.6001 10.9638 45.6254 10.9818 45.6722C10.9999 45.7191 10.9999 45.8578 10.9999 46.0831V48.3302H11.9931V46.0542C11.9931 45.7695 11.9751 45.5677 11.957 45.4452C11.939 45.3226 11.8667 45.2109 11.7584 45.1388L11.7349 45.1442ZM12.3308 44.3657H13.3512V44.8847H12.3308V44.3657ZM12.3308 45.0829H13.3512V48.3266H12.3308V45.0829ZM15 46.1786C14.9458 46.8543 14.9097 47.2778 14.888 47.4526L14.6099 45.0829H13.725L14.2216 48.3266H15.5165L15.9806 45.0829H15.0957L14.9874 46.1786H15ZM17.8786 45.1821C17.698 45.0739 17.4687 45.0235 17.1924 45.0235C16.963 45.0235 16.7626 45.0667 16.5874 45.155C16.4122 45.2415 16.2876 45.3677 16.2082 45.5334C16.1359 45.6956 16.0944 45.9191 16.0944 46.2038V47.1499C16.0944 47.3913 16.1124 47.5751 16.1486 47.7013C16.1847 47.8274 16.2425 47.9536 16.3292 48.0617C16.4194 48.1698 16.5459 48.2599 16.7048 48.314C16.8637 48.368 17.0479 48.4041 17.2592 48.4041C17.4759 48.4041 17.6565 48.386 17.7974 48.314C17.9418 48.2599 18.0592 48.1698 18.1513 48.0437C18.2597 47.9175 18.3139 47.8094 18.3319 47.7013C18.368 47.5932 18.368 47.449 18.368 47.2328V46.9985H17.429V47.431C17.429 47.5932 17.429 47.7013 17.3928 47.7553C17.3567 47.8094 17.3206 47.8454 17.2484 47.8454C17.1942 47.8454 17.1581 47.8274 17.122 47.7914C17.1039 47.7553 17.1039 47.6472 17.1039 47.5031V46.8003H18.3861V46.3678C18.3861 46.0614 18.35 45.8092 18.2777 45.647C18.2055 45.4848 18.0791 45.3406 17.8985 45.2325L17.8786 45.1821ZM17.373 46.2344H17.084V46.0002C17.084 45.8146 17.0931 45.7028 17.1093 45.6614C17.1256 45.6199 17.1689 45.5893 17.2357 45.5893C17.2935 45.5893 17.3296 45.6073 17.3477 45.6614C17.3658 45.7155 17.3748 45.8236 17.3748 45.9858V46.22L17.373 46.2344ZM19.7749 45.5082L19.8146 45.0829H18.8249V48.3266H19.8146V47.0471C19.8146 46.7318 19.8254 46.5318 19.8435 46.4435C19.8615 46.357 19.9157 46.2885 20.0006 46.2398C20.0855 46.1912 20.2173 46.1678 20.4015 46.1678V45.0235C20.127 45.0415 19.9193 45.2037 19.7749 45.51V45.5082ZM22.0178 46.4327C21.8011 46.3245 21.6602 46.247 21.5916 46.1912C21.5194 46.1371 21.4796 46.0831 21.4652 46.038C21.4526 45.9912 21.4471 45.9173 21.4471 45.8182C21.4471 45.7461 21.458 45.692 21.4869 45.656C21.514 45.6163 21.5555 45.5983 21.6133 45.5983C21.6801 45.5983 21.7216 45.6163 21.7397 45.6578C21.7578 45.6974 21.7668 45.7929 21.7668 45.9425V46.1191H22.6445V45.9317C22.6264 45.7515 22.6264 45.6434 22.6083 45.5713C22.5903 45.4812 22.5361 45.4091 22.4639 45.319C22.3736 45.2289 22.2652 45.1568 22.1027 45.1028C21.9402 45.0487 21.7596 45.0127 21.5429 45.0127C21.3261 45.0127 21.1275 45.0487 20.965 45.1028C20.8024 45.1568 20.676 45.2649 20.6038 45.3911C20.5315 45.4992 20.4954 45.6974 20.4954 45.9497C20.4954 46.1299 20.5135 46.2921 20.5857 46.4182C20.658 46.5444 20.8205 46.6885 21.1094 46.8507C21.4526 47.0309 21.6512 47.1571 21.6873 47.1931C21.7234 47.2292 21.7415 47.3192 21.7415 47.4814C21.7415 47.5896 21.7234 47.6616 21.7054 47.6977C21.6693 47.7337 21.6332 47.7517 21.5609 47.7517C21.4887 47.7517 21.4526 47.7157 21.4164 47.6616C21.3984 47.6076 21.3803 47.4995 21.3803 47.3192V47.121H20.4954V47.2652C20.4954 47.5355 20.5135 47.7337 20.5857 47.8599C20.658 47.986 20.7663 48.0941 20.9469 48.1662C21.1275 48.2383 21.3442 48.2743 21.597 48.2743C21.8137 48.2743 22.0124 48.2383 22.1749 48.1662C22.3375 48.0941 22.4458 47.986 22.5181 47.8418C22.5903 47.6977 22.6264 47.4995 22.6264 47.2472C22.6264 47.0129 22.5722 46.8327 22.4819 46.7066C22.3916 46.5804 22.211 46.4543 21.9221 46.3101L22.0178 46.4327ZM22.984 45.0811H24.0043V48.3248H22.984V45.0811ZM22.984 44.3657H24.0043V44.8847H22.984V44.3657ZM25.4039 47.4112V45.674H25.6712V45.1604H25.4039V44.6559H24.4107V45.1785H24.1994V45.701H24.4107V47.3589C24.4107 47.6833 24.4197 47.8995 24.4378 47.9716C24.4558 48.0437 24.501 48.1338 24.575 48.2058C24.649 48.2779 24.7339 48.314 24.8278 48.332C24.9272 48.35 25.0879 48.368 25.3154 48.368H25.7127V47.8454C25.5502 47.8454 25.4599 47.8454 25.4364 47.8094C25.4148 47.7914 25.4039 47.6652 25.4039 47.467V47.4112ZM27.9467 45.1821C27.7661 45.0739 27.5367 45.0235 27.2604 45.0235C27.0311 45.0235 26.8306 45.0667 26.6554 45.155C26.4802 45.2415 26.3556 45.3677 26.2762 45.5334C26.2039 45.6956 26.1642 45.9191 26.1642 46.2038V47.1499C26.1642 47.3913 26.1823 47.5751 26.2148 47.7013C26.2473 47.8274 26.3105 47.9536 26.399 48.0617C26.4893 48.1698 26.6157 48.2599 26.7728 48.314C26.9299 48.368 27.1159 48.4041 27.3272 48.4041C27.5439 48.4041 27.7245 48.386 27.8654 48.314C28.0099 48.2599 28.1272 48.1698 28.2194 48.0437C28.3133 47.9175 28.3729 47.8094 28.3999 47.7013C28.4234 47.5932 28.4361 47.449 28.4361 47.2328V46.9985H27.497V47.431C27.497 47.5932 27.4843 47.7013 27.4609 47.7553C27.4374 47.8094 27.3832 47.8454 27.3074 47.8454C27.2532 47.8454 27.2171 47.8274 27.199 47.7914C27.1809 47.7553 27.1629 47.6472 27.1629 47.5031V46.8003H28.4451V46.3678C28.4451 46.0614 28.409 45.8092 28.3367 45.647C28.2645 45.4848 28.1381 45.3406 27.9575 45.2325L27.9467 45.1821ZM27.441 46.2344H27.1521V46.0002C27.1521 45.8146 27.1611 45.7028 27.1773 45.6614C27.1936 45.6199 27.2315 45.5893 27.3037 45.5893C27.3579 45.5893 27.394 45.6073 27.4121 45.6614C27.4302 45.7155 27.4302 45.8236 27.4302 45.9858V46.22L27.441 46.2344ZM26.8306 44.8649H27.3272L28.1345 44.2018H27.2496L26.8306 44.8649ZM30.8795 45.7875C30.7169 45.6974 30.6086 45.6073 30.5725 45.5353C30.5363 45.4632 30.5183 45.355 30.5183 45.2289C30.5183 45.1208 30.5364 45.0487 30.5544 44.9946C30.5905 44.9406 30.6266 44.9045 30.6989 44.9045C30.7531 44.9045 30.7892 44.9226 30.8072 44.9586C30.8253 44.9946 30.8434 45.0847 30.8434 45.2109V45.4992H31.8005V45.3551C31.8005 45.0307 31.7644 44.8144 31.7102 44.6703C31.656 44.5261 31.5116 44.436 31.331 44.3459C31.1323 44.2558 30.9156 44.2198 30.6447 44.2198C30.3919 44.2198 30.1932 44.2558 30.0126 44.3279C29.832 44.418 29.7056 44.5261 29.6334 44.6703C29.5612 44.8144 29.507 45.0307 29.507 45.337C29.507 45.5353 29.525 45.7155 29.5792 45.8596C29.6334 46.0038 29.7056 46.0939 29.7779 46.184C29.8682 46.2561 30.0307 46.3822 30.2835 46.5444C30.5364 46.7066 30.6989 46.8327 30.7711 46.9048C30.8253 46.9769 30.8614 47.121 30.8614 47.3553C30.8614 47.4634 30.8434 47.5355 30.8072 47.5896C30.7711 47.6436 30.7169 47.6616 30.6447 47.6616C30.5725 47.6616 30.5183 47.6436 30.5002 47.5896C30.4641 47.5535 30.4461 47.4634 30.4461 47.3012V46.8525H29.5431V47.112C29.5431 47.4039 29.5792 47.6346 29.6334 47.7968C29.6876 47.959 29.814 48.0887 30.0126 48.1932C30.2113 48.3014 30.4461 48.3554 30.7169 48.3554C30.9698 48.3554 31.1865 48.305 31.3851 48.2149C31.5838 48.1248 31.7102 48.004 31.7824 47.8725C31.8547 47.7373 31.8908 47.5301 31.8908 47.2472C31.8908 46.8507 31.8366 46.5804 31.7102 46.4002C31.5838 46.22 31.3129 46.0038 30.8434 45.7335L30.8795 45.7875ZM34.2566 45.1748C34.076 45.0487 33.8231 44.9946 33.4981 44.9946C33.2091 44.9946 32.9924 45.0487 32.8118 45.1568C32.6312 45.2649 32.5229 45.3731 32.4687 45.5172C32.4145 45.6614 32.3784 45.8416 32.3784 46.0939V46.3101H33.2994V45.9677C33.2994 45.7875 33.2994 45.6794 33.3175 45.6254C33.3355 45.5713 33.3717 45.5533 33.4439 45.5533C33.4981 45.5533 33.5342 45.5713 33.5703 45.6254C33.5884 45.6794 33.6064 45.7875 33.6064 45.9497C33.6064 46.0759 33.5884 46.166 33.5703 46.22C33.5342 46.2561 33.3717 46.3462 33.0466 46.4723C32.7396 46.5804 32.5409 46.6885 32.4687 46.7786C32.3784 46.8687 32.3423 47.0309 32.3423 47.2652V47.5355C32.3423 47.8599 32.4145 48.0761 32.559 48.1662C32.7035 48.2563 32.866 48.3104 33.0285 48.3104C33.1549 48.3104 33.2814 48.2743 33.3716 48.2203C33.4619 48.1662 33.5522 48.0761 33.6064 47.968V48.2563H34.5636V46.6345C34.5636 46.0939 34.5455 45.7335 34.5094 45.5713C34.4733 45.4091 34.383 45.2469 34.2024 45.1388L34.2566 45.1748ZM33.6245 47.4274C33.6245 47.5896 33.6064 47.6797 33.5884 47.7157C33.5703 47.7517 33.5161 47.7698 33.4619 47.7698C33.3897 47.7698 33.3536 47.7517 33.3175 47.6977C33.2994 47.6436 33.2814 47.5355 33.2814 47.3733C33.2814 47.2292 33.2994 47.121 33.3175 47.0309C33.3355 46.9408 33.4258 46.8507 33.5884 46.7426V47.4094L33.6245 47.4274ZM36.0986 46.1479C36.0444 46.8147 36.0083 47.2472 35.9902 47.4094L35.7013 45.0487H34.8543L35.3509 48.2923H36.6458L37.1099 45.0487H36.225L36.1167 46.1479H36.0986ZM39.2409 45.337C39.1506 45.2289 39.0242 45.1388 38.8617 45.0667C38.6991 44.9946 38.5005 44.9586 38.2838 44.9586C38.0129 44.9586 37.7962 45.0127 37.6336 45.1028C37.453 45.2109 37.3447 45.337 37.2724 45.5172C37.2002 45.6974 37.1641 45.9137 37.1641 46.22V47.0489C37.1641 47.3192 37.1821 47.5355 37.2183 47.6616C37.2544 47.7878 37.3086 47.9139 37.3989 48.004C37.4892 48.0941 37.5975 48.1662 37.742 48.2203C37.8865 48.2743 38.0851 48.2923 38.3018 48.2923C38.5005 48.2923 38.663 48.2743 38.8255 48.2022C38.9881 48.1302 39.0964 48.0581 39.1867 47.9319C39.277 47.8238 39.3493 47.6797 39.3673 47.5535C39.3854 47.4094 39.4034 47.1931 39.4034 46.9048V46.1317C39.4034 45.8975 39.3854 45.7281 39.3493 45.6163C39.3131 45.5082 39.259 45.4001 39.1687 45.292L39.2409 45.337ZM38.4644 47.4274C38.4644 47.5535 38.4463 47.6616 38.4282 47.6977C38.4102 47.7337 38.356 47.7517 38.3018 47.7517C38.2476 47.7517 38.1935 47.7337 38.1754 47.6797C38.1573 47.6436 38.1393 47.5355 38.1393 47.3913V45.9497C38.1393 45.7695 38.1393 45.6794 38.1573 45.6254C38.1754 45.5713 38.2115 45.5533 38.2657 45.5533C38.3199 45.5533 38.356 45.5713 38.3741 45.6073C38.3921 45.6434 38.3921 45.7515 38.3921 45.9137V47.4094L38.4644 47.4274ZM39.9452 44.3099H40.9746V44.8325H39.9452V44.3099ZM39.9452 45.0127H40.9746V48.2563H39.9452V45.0127ZM43.1417 45.1028C42.9611 44.9946 42.7444 44.9406 42.4554 44.9406C42.2387 44.9406 42.022 44.9946 41.8595 45.0847C41.6789 45.1748 41.5525 45.301 41.4802 45.4632C41.408 45.6253 41.3538 45.8416 41.3538 46.1299V47.067C41.3538 47.3193 41.3719 47.4995 41.408 47.6256C41.4441 47.7517 41.4983 47.8779 41.5886 47.968C41.6789 48.0761 41.8053 48.1482 41.9678 48.2203C42.1304 48.2923 42.311 48.3104 42.5096 48.3104C42.7263 48.3104 42.9069 48.2743 43.0333 48.2203C43.1778 48.1482 43.3042 48.0581 43.3945 47.9319C43.4848 47.8058 43.5571 47.6977 43.5751 47.5896C43.5932 47.4814 43.6112 47.3192 43.6112 47.121V46.8687H42.6722V47.3012C42.6722 47.4634 42.6541 47.5715 42.636 47.6256C42.618 47.6797 42.5638 47.7157 42.4916 47.7157C42.4374 47.7157 42.3832 47.6977 42.3651 47.6436C42.3471 47.6076 42.329 47.4995 42.329 47.3553V46.6723H43.6112V46.3119C43.6112 45.9984 43.5751 45.7533 43.5029 45.5803C43.4306 45.4145 43.3042 45.274 43.1236 45.1658L43.1417 45.1028ZM42.636 46.166H42.3471V45.9515C42.3471 45.7713 42.3651 45.6578 42.3832 45.6091C42.3832 45.5731 42.4374 45.5497 42.5096 45.5497C42.5638 45.5497 42.5999 45.5677 42.618 45.6217C42.636 45.6758 42.636 45.7839 42.636 45.9461V46.1804V46.166ZM46.6271 46.1479L46.4646 45.1388L46.3382 44.2919H45.0018V48.2563H45.9048V45.6434L46.284 48.2563H46.9161L47.2773 45.5713V48.2743H48.1802V44.3099H46.8258L46.591 46.166L46.6271 46.1479ZM50.6724 45.301C50.5821 45.1929 50.4557 45.1028 50.2931 45.0307C50.1306 44.9586 49.932 44.9226 49.7153 44.9226C49.4444 44.9226 49.2277 44.9766 49.0651 45.0847C48.9026 45.1929 48.7762 45.319 48.7039 45.4992C48.6317 45.6794 48.5956 45.8957 48.5956 46.202V47.0309C48.5956 47.3012 48.6136 47.5175 48.6498 47.6436C48.6859 47.7878 48.7401 47.8959 48.8304 48.004C48.9206 48.1121 49.029 48.1662 49.1915 48.2203C49.3541 48.2743 49.5347 48.2923 49.7514 48.2923C49.95 48.2923 50.1306 48.2563 50.2751 48.2022C50.4196 48.1482 50.546 48.0581 50.6543 47.9319C50.7627 47.8058 50.8169 47.6797 50.8349 47.5535C50.871 47.4094 50.871 47.1931 50.871 46.9048V46.1317C50.871 45.8975 50.853 45.7245 50.8169 45.6091C50.7808 45.4902 50.7266 45.3749 50.6363 45.274L50.6724 45.301ZM49.8958 47.3913C49.8958 47.5355 49.8778 47.6256 49.8597 47.6616C49.8417 47.6977 49.8056 47.7157 49.7333 47.7157C49.6791 47.7157 49.643 47.6797 49.625 47.6436C49.6069 47.5896 49.5888 47.4995 49.5888 47.3373V45.8957C49.5888 45.7335 49.6069 45.6254 49.625 45.5713C49.643 45.5172 49.6791 45.4992 49.7333 45.4992C49.7875 45.4992 49.8236 45.5172 49.8417 45.5533C49.8597 45.5893 49.8597 45.6974 49.8597 45.8596V47.3553L49.8958 47.3913ZM53.309 45.0667C53.2007 44.9766 53.0743 44.9406 52.8937 44.9406C52.7673 44.9406 52.6409 44.9766 52.5325 45.0307C52.4241 45.0847 52.3519 45.1748 52.2797 45.301L52.2977 44.9946H51.2882V48.2383H52.2815V46.0759C52.2815 45.8236 52.2887 45.6794 52.3068 45.6254C52.3248 45.5713 52.37 45.5353 52.4404 45.5353C52.5036 45.5353 52.5487 45.5533 52.5596 45.6073C52.5776 45.6614 52.5885 45.7875 52.5885 46.0218V48.2941H53.5817V46.0056C53.5817 45.7173 53.5637 45.519 53.533 45.3929C53.5023 45.2668 53.4336 45.1586 53.3343 45.0865L53.309 45.0667ZM54.9524 47.3373V45.5911H55.2233V45.0775H54.9524V44.573H53.9592V45.0865H53.7425V45.6091H53.9411V47.258C53.9411 47.5823 53.9411 47.7878 53.9592 47.8707C53.9772 47.9536 54.0314 48.0329 54.1036 48.1049C54.1759 48.1716 54.2481 48.213 54.3565 48.2311C54.4468 48.2491 54.6093 48.2617 54.8441 48.2617H55.2414V47.7535C55.0788 47.7535 54.9885 47.7355 54.9524 47.7175C54.9344 47.6923 54.9163 47.5733 54.9163 47.3571L54.9524 47.3373ZM58.3114 46.1119C58.5282 46.0578 58.6726 45.9858 58.7449 45.8957C58.8171 45.8056 58.8532 45.6434 58.8532 45.4091C58.8532 45.0667 58.799 44.8144 58.6907 44.6703C58.5823 44.5081 58.4559 44.4 58.2934 44.3639C58.1128 44.3099 57.878 44.2738 57.553 44.2738H56.5254V48.2383H57.7173C58.1327 48.2383 58.4035 48.2203 58.539 48.1662C58.678 48.1121 58.7738 48.022 58.837 47.8959C58.8911 47.7698 58.9273 47.5715 58.9273 47.3012V46.9408C58.9273 46.6705 58.8839 46.4903 58.8008 46.3642C58.7106 46.238 58.548 46.1479 58.3132 46.0939L58.3114 46.1119ZM57.8961 47.1931C57.8961 47.3553 57.86 47.4454 57.8238 47.4814C57.7877 47.5175 57.6794 47.5355 57.5349 47.5535V46.4723C57.6794 46.4723 57.7877 46.4903 57.8238 46.5264C57.86 46.5624 57.878 46.6705 57.878 46.8327V47.2111L57.8961 47.1931ZM57.8419 45.7515C57.8058 45.8056 57.7516 45.8236 57.6433 45.8236H57.5349V44.9406C57.6433 44.9406 57.7155 44.9406 57.7516 44.9586C57.7877 44.9586 57.8058 44.9946 57.8419 45.0487C57.86 45.1028 57.878 45.1748 57.878 45.301C57.878 45.5352 57.86 45.6794 57.8238 45.7155L57.8419 45.7515ZM59.395 44.2738H60.4063V48.2383H59.4149L59.395 44.2738ZM62.5915 45.1028C62.4109 44.9766 62.1581 44.9226 61.833 44.9226C61.544 44.9226 61.3273 44.9766 61.1467 45.0847C60.9661 45.1929 60.8578 45.301 60.8036 45.4452C60.7494 45.5893 60.7133 45.7695 60.7133 46.0218V46.238H61.6343V45.9515C61.6343 45.7713 61.6343 45.6542 61.6524 45.6091C61.6705 45.5623 61.7066 45.5371 61.7788 45.5371C61.8511 45.5371 61.8872 45.5695 61.9052 45.6199C61.9233 45.6704 61.9413 45.7821 61.9413 45.9533C61.9413 46.0975 61.9414 46.1876 61.9052 46.2236C61.8691 46.2597 61.7066 46.3498 61.3815 46.4759C61.0745 46.602 60.8759 46.6921 60.8036 46.7822C60.7314 46.8723 60.6953 47.0345 60.6953 47.2868V47.5571C60.6953 47.8815 60.7675 48.0977 60.912 48.2058C61.0564 48.314 61.219 48.368 61.3815 48.368C61.5079 48.368 61.6343 48.35 61.7246 48.2779C61.8149 48.2239 61.9052 48.1338 61.9594 48.0256V48.314H62.9165V46.6921C62.9165 46.1696 62.8985 45.8092 62.8624 45.629C62.8263 45.4668 62.736 45.3226 62.5554 45.1965L62.5915 45.1028ZM61.9594 47.3553C61.9594 47.5175 61.9414 47.6256 61.9233 47.6616C61.9052 47.6977 61.8691 47.7157 61.7969 47.7157C61.7246 47.7157 61.6885 47.6977 61.6705 47.6436C61.6524 47.5896 61.6343 47.4814 61.6343 47.3192C61.6343 47.1751 61.6524 47.067 61.6705 46.9949C61.6885 46.9048 61.7969 46.8147 61.9413 46.7066V47.3733L61.9594 47.3553ZM65.3184 45.0487C65.2101 44.9586 65.0656 44.9226 64.9031 44.9226C64.7586 44.9226 64.6502 44.9406 64.5419 45.0127C64.4335 45.0847 64.3432 45.1568 64.271 45.283L64.289 44.9766H63.2777V48.2203H64.271V46.0578C64.271 45.8056 64.271 45.6614 64.289 45.6073C64.3071 45.5533 64.3432 45.5172 64.4155 45.5172C64.4696 45.5172 64.5238 45.5533 64.5419 45.5893C64.5599 45.6434 64.5599 45.7875 64.5599 46.0038V48.2941H65.5532V46.0236C65.5532 45.7353 65.5351 45.5371 65.5171 45.4109C65.499 45.2848 65.4087 45.1766 65.3004 45.1046L65.3184 45.0487ZM68.3163 46.22C68.3163 45.9137 68.2801 45.6794 68.226 45.4992C68.1718 45.337 68.0454 45.1929 67.8648 45.0847C67.6842 44.9766 67.4675 44.9226 67.1966 44.9226C66.9257 44.9226 66.709 44.9766 66.5284 45.0847C66.3478 45.1929 66.2394 45.319 66.1853 45.4452C66.1311 45.5893 66.095 45.7875 66.095 46.0578V46.9769C66.095 47.2832 66.1311 47.5355 66.2033 47.7157C66.2575 47.8959 66.3839 48.022 66.5465 48.1121C66.709 48.2022 66.9257 48.2563 67.2146 48.2563C67.4314 48.2563 67.6119 48.2203 67.7564 48.1482C67.9009 48.0761 68.0093 47.986 68.1176 47.8418C68.226 47.6977 68.2621 47.5715 68.2801 47.4454C68.2982 47.3193 68.2982 47.121 68.2982 46.8687H67.4133V47.2472C67.4133 47.4094 67.3952 47.5355 67.3772 47.5896C67.3591 47.6436 67.3049 47.6797 67.2508 47.6797C67.1966 47.6797 67.1605 47.6436 67.1243 47.5896C67.0882 47.5355 67.0702 47.4454 67.0702 47.3373V45.8056C67.0702 45.6614 67.0702 45.5713 67.0882 45.5353C67.1063 45.4992 67.1424 45.4812 67.1966 45.4812C67.2508 45.4812 67.3049 45.4992 67.323 45.5533C67.3411 45.6073 67.3591 45.6794 67.3591 45.8056V46.184H68.2982L68.3163 46.22ZM11.0161 40.7977H9.08379V38.5813H10.7308V36.6567H9.08379V34.743H10.8446V32.7193H6.44714V42.8322H11.0197L11.0161 40.7977ZM14.5738 37.2279C14.5738 36.5972 14.5973 36.2188 14.6424 36.0747C14.6894 35.9305 14.8013 35.8584 14.9801 35.8584C15.1517 35.8584 15.2564 35.9125 15.2944 36.0386C15.3323 36.1648 15.3485 36.5071 15.3485 37.0838V42.8142H17.8768V37.0117C17.8768 36.2909 17.8227 35.7683 17.7504 35.462C17.6601 35.1376 17.4795 34.8853 17.2086 34.6871C16.9197 34.4889 16.5766 34.3808 16.1431 34.3808C15.8 34.3808 15.493 34.4528 15.2221 34.615C14.9512 34.7592 14.7345 34.9934 14.5539 35.2998L14.5901 34.5249H12.0455V42.8142H14.5738V37.2099V37.2279ZM19.0615 40.2553C19.0615 41.0662 19.0832 41.6069 19.1301 41.8231C19.1753 42.0393 19.2927 42.2376 19.4805 42.4178C19.6683 42.598 19.885 42.6881 20.1306 42.7421C20.378 42.7782 20.788 42.8142 21.3641 42.8142H22.3844V41.4627C21.9727 41.4627 21.7379 41.4267 21.6801 41.3546C21.6259 41.2825 21.597 40.9761 21.597 40.4355V36.0404H22.2652V34.7304H21.579V33.4221H19.0507V34.7286H18.5089V36.0404H19.0507V40.2517L19.0615 40.2553ZM27.0437 34.3808C26.3448 34.4168 25.8157 34.8313 25.4455 35.6242L25.5448 34.5249H23.0165V42.8142H25.5448V39.5526C25.5448 38.7416 25.5701 38.2371 25.6206 38.0028C25.6712 37.7686 25.8012 37.6064 26.0215 37.4802C26.2383 37.3541 26.5633 37.282 27.0329 37.282V34.3627L27.0437 34.3808ZM31.2334 42.9764C31.7842 42.9764 32.2448 42.8863 32.6059 42.7421C32.9725 42.5799 33.2741 42.3457 33.5089 42.0393C33.7491 41.715 33.9008 41.4266 33.9658 41.1563C34.0308 40.886 34.0633 40.4896 34.0633 39.967V39.3543H31.6651V40.4536C31.6651 40.868 31.6325 41.1383 31.5675 41.2825C31.5025 41.4267 31.3743 41.4987 31.1829 41.4987C31.0276 41.4987 30.9246 41.4447 30.8704 41.3365C30.8163 41.2284 30.7874 40.9761 30.7874 40.6157V38.8137H34.0633V37.7145C34.0633 36.9036 33.9694 36.2909 33.7834 35.8404C33.5974 35.3899 33.2741 35.0295 32.8136 34.7772C32.3531 34.5069 31.7662 34.3627 31.0583 34.3627C30.4768 34.3627 29.9639 34.4709 29.5178 34.6871C29.0699 34.9033 28.7485 35.2277 28.5534 35.6422C28.3584 36.0566 28.2645 36.6333 28.2645 37.3541V39.8247C28.2645 40.4409 28.3187 40.9113 28.409 41.2338C28.4993 41.5582 28.6618 41.8537 28.8966 42.1222C29.1313 42.3925 29.4383 42.6034 29.8537 42.7565C30.2691 42.9115 30.7386 42.9908 31.2804 42.9908L31.2334 42.9764ZM30.7874 36.8675C30.7874 36.399 30.809 36.1107 30.8506 36.0026C30.8921 35.8945 31.0005 35.8404 31.1756 35.8404C31.3201 35.8404 31.4104 35.8945 31.4574 36.0206C31.4935 36.1467 31.5116 36.417 31.5116 36.8495V37.4622H30.7711V36.8495L30.7874 36.8675ZM35.071 34.5249V43.9855H37.5993V42.0934C37.8196 42.3817 38.0634 42.598 38.3307 42.7421C38.598 42.8863 38.8869 42.9584 39.2012 42.9584C39.5931 42.9584 39.9272 42.8502 40.2053 42.67C40.4834 42.4898 40.6658 42.2195 40.7561 41.9132C40.8464 41.6069 40.8915 41.0482 40.8915 40.2914V36.7955C40.8915 36.1287 40.8554 35.6602 40.7832 35.3899C40.7109 35.1196 40.5357 34.8673 40.2486 34.6511C39.9633 34.4348 39.6238 34.3267 39.2319 34.3267C38.9104 34.3267 38.6142 34.3988 38.3434 34.5429C38.0725 34.6871 37.8233 34.9214 37.5975 35.2097L37.6336 34.4709H35.0692L35.071 34.5249ZM37.6716 36.0206C37.7185 35.8945 37.8251 35.8224 37.993 35.8224C38.1628 35.8224 38.2675 35.8764 38.3054 35.9846C38.3596 36.0927 38.3777 36.399 38.3777 36.9036V40.4536C38.3777 40.886 38.3596 41.1744 38.3235 41.2825C38.2874 41.3906 38.179 41.4447 38.0165 41.4447C37.8539 41.4447 37.7456 41.3726 37.6914 41.2464C37.6372 41.1203 37.6192 40.814 37.6192 40.3094V36.8856C37.6192 36.399 37.6553 36.1107 37.6914 35.9846L37.6716 36.0206ZM45.2275 37.4622C45.4442 37.3361 45.7838 37.264 46.2479 37.264V34.3447C45.5436 34.3808 45.0018 34.7952 44.6406 35.5881L44.7309 34.4889H42.2026V42.7782H44.7309V39.5165C44.7309 38.7056 44.749 38.201 44.8031 37.9668C44.8573 37.7325 44.9837 37.5703 45.2004 37.4442L45.2275 37.4622ZM46.9901 34.5069H49.5943V42.7962H46.9901V34.5069ZM46.9901 32.6688H49.5943V33.9843H46.9901V32.6688ZM54.2499 37.9307C53.6991 37.6604 53.3361 37.4442 53.1573 37.3C52.9804 37.1559 52.8738 37.0297 52.8377 36.9036C52.8016 36.7774 52.7835 36.5972 52.7835 36.345C52.7835 36.1648 52.8196 36.0206 52.8919 35.9305C52.9641 35.8224 53.0688 35.7863 53.2115 35.7863C53.3867 35.7863 53.4969 35.8404 53.5402 35.9305C53.5835 36.0206 53.6052 36.2729 53.6052 36.6513V37.1018H55.8446V36.6153C55.8446 36.2008 55.8265 35.8945 55.7813 35.6962C55.738 35.498 55.6116 35.2818 55.4057 35.0655C55.198 34.8493 54.9001 34.6511 54.5172 34.5249C54.1307 34.3808 53.6612 34.3087 53.1086 34.3087C52.556 34.3087 52.0684 34.3808 51.6494 34.561C51.2286 34.7231 50.9324 34.9754 50.7573 35.2818C50.5821 35.5881 50.4936 36.0747 50.4936 36.7414C50.4936 37.2099 50.5749 37.6064 50.7374 37.9488C50.8999 38.2911 51.3514 38.6696 52.0973 39.084C52.9822 39.5706 53.4698 39.8769 53.5673 39.967C53.6576 40.0571 53.7063 40.3094 53.7063 40.7058C53.7063 40.9942 53.6702 41.1924 53.598 41.2645C53.5257 41.3546 53.3993 41.3906 53.2187 41.3906C53.0381 41.3906 52.9298 41.3185 52.8756 41.1924C52.8214 41.0662 52.7853 40.7599 52.7853 40.3094V39.8247H50.546V40.2211C50.546 40.9131 50.6363 41.4285 50.7988 41.7708C50.9613 42.1132 51.2864 42.3835 51.7379 42.5817C52.1894 42.78 52.7311 42.8881 53.3813 42.8881C53.9592 42.8881 54.4468 42.789 54.8621 42.5998C55.2775 42.4196 55.5664 42.1493 55.747 41.8069C55.9276 41.4645 55.9999 40.9599 55.9999 40.286C55.9999 39.6841 55.8734 39.2228 55.6567 38.9056C55.422 38.5813 54.9344 38.2389 54.1939 37.8965L54.2499 37.9307ZM61.9251 34.7412C61.4646 34.4709 60.8777 34.3267 60.1697 34.3267C59.5882 34.3267 59.0753 34.4348 58.6293 34.6691C58.1832 34.9033 57.86 35.2097 57.6649 35.6242C57.4699 36.0386 57.376 36.6153 57.376 37.3361V39.7508C57.376 40.3635 57.4302 40.832 57.5205 41.1563C57.6107 41.4807 57.7733 41.769 57.99 42.0393C58.2248 42.3096 58.5498 42.5079 58.9471 42.67C59.3625 42.8142 59.832 42.9043 60.3738 42.9043C60.9336 42.9043 61.3851 42.8142 61.7463 42.67C62.1256 42.5079 62.4145 42.2736 62.6493 41.9673C62.9021 41.6429 63.0466 41.3546 63.1188 41.0843C63.191 40.814 63.2272 40.4175 63.2272 39.8949V39.2841H60.8253V40.3653C60.8253 40.7797 60.7892 41.05 60.735 41.1942C60.6808 41.3384 60.5544 41.4104 60.3557 41.4104C60.2113 41.4104 60.1029 41.3564 60.0487 41.2483C59.9946 41.1401 59.9765 40.8951 59.9765 40.5202V38.7182H63.2272V37.637C63.2272 36.8315 63.1369 36.2134 62.9563 35.7629C62.7757 35.3196 62.4506 34.9628 61.9811 34.6997L61.9251 34.7412ZM60.6375 37.4262H59.897V36.8135C59.897 36.345 59.9205 36.0566 59.9621 35.9485C60.0036 35.8404 60.1119 35.7863 60.2871 35.7863C60.4316 35.7863 60.5219 35.8404 60.5688 35.9665C60.605 36.0927 60.623 36.363 60.623 36.7955V37.4082L60.6375 37.4262ZM69.3601 38.9399C69.1289 38.6155 68.6467 38.2731 67.9153 37.9307C67.3609 37.6424 66.9979 37.4442 66.8191 37.3C66.6422 37.1559 66.5356 37.0297 66.5013 36.9036C66.4652 36.7774 66.4471 36.5972 66.4471 36.345C66.4471 36.1467 66.4832 36.0026 66.5555 35.9125C66.6241 35.8044 66.7307 35.7683 66.8733 35.7683C67.0485 35.7683 67.1587 35.8224 67.202 35.9125C67.2453 36.0206 67.267 36.2549 67.267 36.6333V37.0838H69.5064V36.5972C69.5064 36.1828 69.4883 35.8764 69.4432 35.6782C69.3998 35.48 69.2734 35.2638 69.0675 35.0295C68.8616 34.7952 68.5655 34.615 68.179 34.4709C67.7925 34.3447 67.3248 34.2726 66.774 34.2726C66.2178 34.2726 65.7302 34.3447 65.3112 34.5249C64.8922 34.6871 64.5942 34.9394 64.4191 35.2457C64.2439 35.5521 64.1662 36.0566 64.1662 36.7054C64.1662 37.1739 64.2565 37.5703 64.4191 37.9127C64.5816 38.2551 65.0331 38.6335 65.7916 39.048C66.6765 39.5345 67.1641 39.8229 67.2724 39.931C67.3627 40.0211 67.4169 40.2734 67.4169 40.6698C67.4169 40.9581 67.3808 41.1383 67.3086 41.2284C67.2363 41.3185 67.1099 41.3726 66.9474 41.3726C66.7848 41.3726 66.6584 41.3005 66.6042 41.1744C66.5501 41.0482 66.532 40.7419 66.532 40.3094V39.8247H64.2746V40.2211C64.2746 40.9149 64.3649 41.4285 64.5455 41.7708C64.7261 42.1132 65.0331 42.3835 65.4846 42.5817C65.9541 42.78 66.4959 42.8881 67.146 42.8881C67.742 42.8881 68.2296 42.7908 68.6449 42.6052C69.0603 42.425 69.3492 42.1547 69.5298 41.8123C69.7104 41.4699 69.7827 40.9653 69.7827 40.2986C69.7827 39.6931 69.6743 39.2354 69.4395 38.9164L69.3601 38.9399ZM53.5276 29.209C53.7298 29.3531 53.97 29.4252 54.2463 29.4252C54.4522 29.4252 54.649 29.3712 54.8368 29.2991C55.0247 29.209 55.2053 29.0648 55.375 28.9026V29.3171H57.1557V22.1991H55.3678V23.857C55.2053 23.6948 55.0427 23.5687 54.8621 23.4966C54.6815 23.4065 54.4648 23.3704 54.2481 23.3704C53.9592 23.3704 53.7063 23.4425 53.5077 23.5867C53.291 23.7128 53.1646 23.893 53.1104 24.0732C53.0562 24.2534 53.0201 24.5778 53.0201 25.0283V27.7511C53.0201 28.1836 53.0381 28.49 53.0923 28.6882C53.1465 28.8684 53.2729 29.0486 53.4896 29.1928L53.5276 29.209ZM54.8332 24.9562C54.8332 24.7219 54.8513 24.5778 54.8874 24.5057C54.9235 24.4336 54.9958 24.3976 55.1005 24.3976C55.2269 24.3976 55.2992 24.4336 55.3353 24.5057C55.3714 24.5778 55.3895 24.7219 55.3895 24.9382V27.6412C55.3895 27.9656 55.3714 28.1638 55.3353 28.2539C55.2992 28.326 55.2269 28.38 55.1005 28.38C55.0102 28.38 54.938 28.344 54.9019 28.2539C54.8657 28.1818 54.8477 28.0196 54.8477 27.7854V24.9382L54.8332 24.9562ZM58.1688 28.8323C58.3277 29.0198 58.5516 29.1675 58.8406 29.2774C59.1295 29.3856 59.46 29.4396 59.8374 29.4396C60.2239 29.4396 60.5472 29.3856 60.8054 29.2774C61.0619 29.1693 61.275 29.0071 61.4411 28.7837C61.6073 28.5602 61.7156 28.3584 61.7608 28.171C61.7969 27.9728 61.8149 27.6935 61.8149 27.3331V26.9006H60.1372V27.6755C60.1372 27.9638 60.1156 28.162 60.0704 28.2647C60.0253 28.3548 59.935 28.4089 59.7995 28.4089C59.6912 28.4089 59.6189 28.3728 59.5792 28.2827C59.5431 28.2107 59.525 28.0395 59.525 27.7746V26.5132H61.8366V25.7689C61.8366 25.2103 61.7824 24.7688 61.638 24.4534C61.5115 24.1471 61.2948 23.8948 60.9698 23.6966C60.6447 23.5164 60.2293 23.4209 59.7417 23.4209C59.3444 23.4209 58.9832 23.4966 58.6582 23.6552C58.3512 23.8119 58.1164 24.0372 57.99 24.3309C57.8455 24.6246 57.7913 25.0265 57.7913 25.5383V27.2394C57.7913 27.6755 57.8275 28.007 57.8816 28.2341C57.9539 28.4611 58.0622 28.6702 58.2248 28.8594L58.1688 28.8323ZM59.5232 25.1382C59.5232 24.8138 59.5377 24.6102 59.5684 24.5363C59.5973 24.4552 59.6731 24.4192 59.7977 24.4192C59.897 24.4192 59.9639 24.4733 59.9964 24.5634C60.0289 24.6535 60.0451 24.8517 60.0451 25.158V25.5905H59.5214V25.1761L59.5232 25.1382ZM63.406 26.76C64.0308 27.1114 64.3757 27.3187 64.4444 27.3907C64.5094 27.4574 64.5419 27.6322 64.5419 27.9133C64.5419 28.1115 64.5058 28.2467 64.4516 28.3098C64.3974 28.3728 64.3071 28.3999 64.1807 28.3999C64.0543 28.3999 63.982 28.3458 63.9459 28.2557C63.8917 28.1656 63.8737 27.9494 63.8737 27.643V27.2718H62.3043V27.5601C62.3043 28.0467 62.3639 28.4071 62.4849 28.6503C62.6059 28.8846 62.8281 29.0828 63.1477 29.227C63.4674 29.3712 63.852 29.4252 64.3071 29.4252C64.7044 29.4252 65.0656 29.3531 65.3545 29.227C65.6435 29.1009 65.8421 28.9026 65.9686 28.6684C66.0769 28.4161 66.1492 28.0557 66.1492 27.5872C66.1492 27.1547 66.0589 26.8303 65.8963 26.6141C65.7338 26.3798 65.3907 26.1455 64.8669 25.8933C64.4696 25.695 64.2168 25.5509 64.0904 25.4428C63.964 25.3346 63.8917 25.2445 63.8556 25.1725C63.8195 25.0824 63.8195 24.9562 63.8195 24.776C63.8195 24.6499 63.8376 24.5417 63.8917 24.4697C63.9459 24.3976 64.0182 24.3615 64.1085 24.3615C64.2168 24.3615 64.3071 24.3976 64.3252 24.4697C64.3613 24.5417 64.3793 24.7039 64.3793 24.9742V25.2986H65.9505V25.0481C65.9505 24.7562 65.9324 24.5399 65.8963 24.3994C65.8783 24.2642 65.788 24.1111 65.6435 23.9543C65.499 23.7921 65.2823 23.6606 65.0114 23.5632C64.7405 23.4641 64.3974 23.4191 64.0182 23.4191C63.6209 23.4191 63.2777 23.4768 62.9888 23.5993C62.6998 23.7182 62.4831 23.8876 62.3567 24.1111C62.2303 24.3309 62.1761 24.6751 62.1761 25.1418C62.1761 25.4698 62.2303 25.7545 62.3387 25.9942C62.447 26.232 62.7721 26.4987 63.2958 26.7907L63.406 26.76ZM21.8065 31.3552C22.4747 31.7264 23.3289 31.9138 24.3619 31.9138C25.3552 31.9138 26.1913 31.6922 26.8721 31.2507C27.5494 30.8002 27.9882 30.2956 28.185 29.7009C28.3819 29.1063 28.483 28.1206 28.483 26.7204V26.1924H24.9579V27.9043C24.9579 28.6485 24.9163 29.1207 24.8351 29.3225C24.7538 29.5243 24.5822 29.6234 24.3204 29.6234C24.0459 29.6234 23.8689 29.5153 23.793 29.3171C23.7136 29.1189 23.6757 28.6864 23.6757 28.0196V21.7486C23.6757 21.0639 23.7118 20.6133 23.793 20.3971C23.8707 20.1989 24.0549 20.0908 24.3456 20.0908C24.6165 20.0908 24.7791 20.1809 24.8513 20.343C24.9235 20.5052 24.9597 20.9377 24.9597 21.6225V23.9831H28.4993V22.7055C28.4993 21.4441 28.3909 20.525 28.1923 19.9124C27.9756 19.3177 27.5421 18.8312 26.8559 18.4167C26.1877 18.0202 25.3208 17.822 24.2915 17.822C23.533 17.822 22.8467 17.9482 22.2688 18.2185C21.6909 18.4762 21.2214 18.8312 20.8963 19.2817C20.5713 19.7322 20.3726 20.2007 20.3004 20.6926C20.2462 21.1792 20.2101 21.9 20.2101 22.8731V26.8375C20.2101 28.162 20.3184 29.1621 20.5351 29.8163C20.7519 30.483 21.2033 31.002 21.8715 31.366L21.8065 31.3552ZM29.6478 18.0959H33.1333V31.6291H29.6478V18.0959ZM35.3961 31.5894C35.7302 31.7696 36.151 31.8597 36.6602 31.8597C37.1063 31.8597 37.5018 31.7642 37.8449 31.5768C38.188 31.3912 38.477 31.1083 38.7118 30.7353L38.6522 31.6579H42.0961V20.5647H38.7118V28.0305C38.7118 28.9387 38.6883 29.4757 38.6395 29.6433C38.5926 29.8108 38.4445 29.8955 38.1917 29.8955C37.9569 29.8955 37.8124 29.8126 37.7582 29.6505C37.7077 29.4883 37.6806 28.9765 37.6806 28.1133V20.5809H34.2945V28.0773C34.2945 29.0324 34.3161 29.6631 34.3559 29.9874C34.392 30.3118 34.4931 30.6181 34.6521 30.9065C34.8146 31.2128 35.0602 31.4471 35.3925 31.6273L35.3961 31.5894ZM46.6958 30.82C46.9793 31.166 47.2917 31.4255 47.6384 31.5984C47.9816 31.7714 48.3428 31.8579 48.7401 31.8579C49.2818 31.8579 49.7694 31.6958 50.1667 31.4074C50.564 31.1191 50.8169 30.7587 50.9252 30.3623C51.0336 29.9658 51.0878 29.3531 51.0878 28.5422V23.5506C51.0878 22.7217 51.0697 22.1991 51.0336 21.9468C50.9975 21.6946 50.8891 21.4423 50.7085 21.172C50.5279 20.9017 50.257 20.7034 49.9139 20.5593C49.5708 20.4151 49.1735 20.343 48.7039 20.343C48.3066 20.343 47.9274 20.4151 47.5843 20.5773C47.2411 20.7395 46.9341 20.9738 46.6452 21.2981V18.1085H43.2681V31.6417H46.4285L46.6452 30.7947L46.6958 30.82ZM46.6958 23.7164C46.6958 23.1037 46.7265 22.7253 46.786 22.5631C46.8493 22.419 46.9847 22.3289 47.1888 22.3289C47.4019 22.3289 47.5445 22.419 47.6168 22.5992C47.689 22.7794 47.7251 23.1578 47.7251 23.7344V28.4197C47.7251 29.0864 47.6944 29.5009 47.6294 29.6631C47.5662 29.8433 47.4271 29.9334 47.2141 29.9334C47.0082 29.9334 46.8709 29.8613 46.7987 29.6811C46.7301 29.5189 46.6958 29.1405 46.6958 28.5458V23.7525V23.7164ZM14.1223 28.1115H12.9954V22.4136H11.1389V29.5369H14.1223V28.1115ZM18.5559 27.1042H16.8673V27.8791C16.8673 28.1854 16.8438 28.3656 16.7987 28.4737C16.7535 28.5819 16.6632 28.6359 16.5278 28.6359C16.4194 28.6359 16.3472 28.5999 16.3075 28.5278C16.2678 28.4557 16.2497 28.2935 16.2497 28.0232V26.7618H18.5559V25.9491C18.5559 25.3797 18.4908 24.94 18.3572 24.6282C18.2308 24.3165 18.0014 24.066 17.6764 23.8768C17.3513 23.6876 16.9396 23.5921 16.4393 23.5921C16.0312 23.5921 15.67 23.6696 15.3558 23.8263C15.0397 23.9831 14.814 24.2084 14.6749 24.5039C14.5377 24.7994 14.4691 25.2013 14.4691 25.7113V27.4142C14.4691 27.8466 14.4998 28.1818 14.5593 28.4053C14.6226 28.6395 14.7345 28.845 14.8934 29.036C15.056 29.2234 15.2781 29.373 15.5671 29.4811C15.856 29.5892 16.1865 29.6433 16.5603 29.6433C16.9504 29.6433 17.2737 29.5892 17.5301 29.4811C17.7883 29.3694 17.9996 29.2036 18.1676 28.9837C18.3355 28.7639 18.4421 28.5566 18.4872 28.3638C18.5324 28.171 18.5559 27.8953 18.5559 27.5349V27.1024V27.1042ZM16.2497 25.3563C16.2497 25.0319 16.2641 24.8337 16.293 24.7616C16.3237 24.6895 16.4014 24.6535 16.5224 24.6535C16.6127 24.6535 16.6849 24.7075 16.721 24.7976C16.7391 24.8877 16.7572 25.086 16.7572 25.3923V25.8068H16.2334V25.3923L16.2497 25.3563Z" fill="white"/>
</g>
<defs>
<clipPath id="clip0_521_829">
<rect width="75" height="75" fill="white"/>
</clipPath>
</defs>
</svg>
