<?xml version="1.0" encoding="utf-8"?>
<!-- Generator: Adobe Illustrator 26.0.1, SVG Export Plug-In . SVG Version: 6.00 Build 0)  -->
<svg version="1.1" id="Calque_1" xmlns="http://www.w3.org/2000/svg" xmlns:xlink="http://www.w3.org/1999/xlink" x="0px" y="0px"
	 viewBox="0 0 232 68" style="enable-background:new 0 0 232 68;" xml:space="preserve">
<style type="text/css">
	.st0{fill:#1C2833;}
	.st1{fill:#3BACB7;}
</style>
<polygon class="st0" points="11,1.5 16.4,1.5 16.4,24.1 32.4,24.1 32.4,30.9 11,30.9 "/>
<path class="st0" d="M34,1.5h22.8V8H40.6l-0.1,6.3h10.8l-0.1,4.6H40.6c0,0-0.2,6.6,0.1,6.6s16.1,0.2,16.1,0.2v5.2H34V1.5z"/>
<path class="st0" d="M76.9,1.5h-5.1c0,0-12.6,29.1-12.6,29.4H65l2.6-4.6l12-3.3l3.5,7.9h6.4L76.9,1.5z M69.6,20.4
	c0-0.3,3.3-9.6,3.3-9.6h2.8l2.8,7.2C78.5,18.1,69.6,20.7,69.6,20.4z"/>
<path class="st0" d="M92.9,1.6V31h6.7l0.1-9.3h5.4l5.4,9.2h6.8l-6.9-11.5c0,0,5.4,0.4,6.7-7.7C118.4-1.1,92.9,1.6,92.9,1.6z
	 M107.5,16.4h-7.7v-9c0,0,5-0.6,7.3,0s4.2,1.3,4.2,4.6S107.5,16.4,107.5,16.4z"/>
<polygon class="st0" points="121.7,30.9 121.7,1.5 128.4,1.5 143,20.1 142.7,1.5 148.4,1.5 148.6,30.9 143.3,30.9 127,9.7 
	127.1,30.9 "/>
<path class="st0" d="M151.4,1.4h6.5v29.4c0,0-6.4,0.2-6.5,0C151.3,30.6,151.4,1.4,151.4,1.4z"/>
<path class="st0" d="M203.8,17.3l13.6-5.7l4.6,10.2c0,0-21.6,16.8-29.3,0.9c-5.4-18.3,12.6-22.5,20-21l-0.2,4.9
	c0,0-17.4-2.7-15.1,13c4.1,11.7,17.2,1.7,17.2,1.7l-1.8-3.7l-6.9,2.4L203.8,17.3z"/>
<polygon class="st1" points="72.2,37.1 77.7,37.1 77.7,59.8 93.7,59.8 93.7,66.5 72.2,66.5 "/>
<path class="st1" d="M114.5,37.1h-5.1c0,0-12.6,29.1-12.6,29.4h5.8l2.6-4.6l12-3.3l3.5,7.9h6.4L114.5,37.1z M107.2,56.1
	c0-0.3,3.3-9.6,3.3-9.6h2.8l2.8,7.2C116.1,53.8,107.2,56.4,107.2,56.1z"/>
<path class="st1" d="M150,51.3c8.3-9.8-2.8-14.2-2.8-14.2H129v29.4h20.3C161.4,58.5,150,51.3,150,51.3z M135.1,41.6
	c0,0,6.4-0.6,8.4,0s11.3,5.6-8.4,9V41.6z M145.8,62c-3.1,1-10.7,0-10.7,0v-5.8l5.8-1.5C152.9,52.5,148.5,61.2,145.8,62z"/>
<polygon class="st0" points="160.6,30.9 160.6,1.5 167.3,1.5 181.8,20.1 181.6,1.5 187.3,1.5 187.5,30.9 182.2,30.9 165.8,9.7 
	166,30.9 "/>
</svg>
